{"title":"The.Whispers.S01E08.HDTV.XViD-Sorrow","uid":12145408,"size":383783426,"categoryP":"video","categoryS":"hd___tv_shows","magnet":"?xt=urn:btih:dea9854a935fdde3d9baf079dca4e792206390d3&amp;dn=The.Whispers.S01E08.HDTV.XViD-Sorrow&amp;tr=udp%3A%2F%2Ftracker.openbittorrent.com%3A80&amp;tr=udp%3A%2F%2Fopen.demonii.com%3A1337&amp;tr=udp%3A%2F%2Ftracker.coppersurfer.tk%3A6969&amp;tr=udp%3A%2F%2Fexodus.desync.com%3A6969","seeders":2,"leechers":0,"uploader":null,"files":2,"time":1437462012,"description":"The Whispers S01E08 HDTV XViD-Sorrow\n\nGeneral\nComplete name                            : The.Whispers.S01E08.HDTV.XViD-Sorrow.avi\nFormat                                   : AVI\nFormat/Info                              : Audio Video Interleave\nFile size                                : 366 MiB\nDuration                                 : 41mn 10s\nOverall bit rate                         : 1 243 Kbps\nWriting application                      : Lavf55.19.104\n\nVideo\nID                                       : 0\nFormat                                   : MPEG-4 Visual\nFormat profile                           : Simple@L3\nFormat settings, BVOP                    : No\nFormat settings, QPel                    : No\nFormat settings, GMC                     : No warppoints\nFormat settings, Matrix                  : Default (H.263)\nCodec ID                                 : XVID\nCodec ID/Hint                            : XviD\nDuration                                 : 41mn 10s\nBit rate                                 : 1 102 Kbps\nWidth                                    : 640 pixels\nHeight                                   : 360 pixels\nDisplay aspect ratio                     : 16:9\nFrame rate                               : 23.976 fps\nColor space                              : YUV\nChroma subsampling                       : 4:2:0\nBit depth                                : 8 bits\nScan type                                : Progressive\nCompression mode                         : Lossy\nBits/(Pixel*Frame)                       : 0.200\nStream size                              : 325 MiB (89%)\nWriting library                          : XviD 64\n\nAudio\nID                                       : 1\nFormat                                   : MPEG Audio\nFormat version                           : Version 1\nFormat profile                           : Layer 3\nMode                                     : Joint stereo\nMode extension                           : MS Stereo\nCodec ID                                 : 55\nCodec ID/Hint                            : MP3\nDuration                                 : 41mn 10s\nBit rate mode                            : Constant\nBit rate                                 : 128 Kbps\nChannel count                            : 2 channels\nSampling rate                            : 48.0 KHz\nCompression mode                         : Lossy\nStream size                              : 37.7 MiB (10%)\nAlignment                                : Aligned on interleaves\nInterleave, duration                     : 24 ms (0.58 video frame)\n\n\nSource:The.Whispers.S01E08.720p.HDTV.x264-KILLERS","torrent":{"xt":"urn:btih:dea9854a935fdde3d9baf079dca4e792206390d3","amp;dn":"The.Whispers.S01E08.HDTV.XViD-Sorrow","amp;tr":["udp%3A%2F%2Ftracker.openbittorrent.com%3A80","udp%3A%2F%2Fopen.demonii.com%3A1337","udp%3A%2F%2Ftracker.coppersurfer.tk%3A6969","udp%3A%2F%2Fexodus.desync.com%3A6969"],"infoHash":"dea9854a935fdde3d9baf079dca4e792206390d3","infoHashBuffer":{"type":"Buffer","data":[222,169,133,74,147,95,221,227,217,186,240,121,220,164,231,146,32,99,144,211]},"announce":[],"urlList":[]}}